<!-- fill="#4b5562" -->


<svg data-name="Layer 1" xmlns="http://www.w3.org/2000/svg" viewBox="0 0 200 200">
    <defs>
        <clipPath id="a">
            <path fill="none" d="M0 0h200v200H0z"/>
        </clipPath>
    </defs>
    <title>
        viking
    </title>
    <g clip-path="url(#a)">
        <path d="M159.59 187.88c-1.45-8.14.85-16.76-5.24-23.13 1.11-.49 3-1 2.95-1.37a23.51 23.51 0 0 0-1.2-4.83L152 160l-1-12.49c1.54.38 2.76.77 4 1s2.59.38 4.27.6c-6-7.42-6.07-7.4-7.8-17.61-.73-4.27-1.86-8.29-5.54-11.07l7.89-2.8c-11.52-1.24-11.14-4.83-12.46-12.59a12.12 12.12 0 0 0-3.85-8 4.27 4.27 0 0 1-1.58-4c0-1.73.32-3.46-1.6-4.77-.56-.38-.45-2.69.15-3.59a8.1 8.1 0 0 1 3.52-2.4 23.62 23.62 0 0 0 14.41-15.35 33.41 33.41 0 0 0-.26-20.39c-1.18-3.61-2.63-7.16-4.15-10.69-.34-.68-.51-1.37-.81-2.14a78.57 78.57 0 0 0-7.31-14.28c-3.27-6.26-7.61-9.83-13.47-9.4.58.77 1.18 1.54 1.77 2.24a45.87 45.87 0 0 1 9.79 20 67.5 67.5 0 0 1 1.09 7 116.08 116.08 0 0 1 .51 12 12.57 12.57 0 0 1-9.11 13.32 4.27 4.27 0 0 1-5.6-1.75 63.61 63.61 0 0 0-23.4-21.37 3.8 3.8 0 0 0-3 0 63.61 63.61 0 0 0-23.4 21.37 4.27 4.27 0 0 1-5.6 1.75 12.57 12.57 0 0 1-9.11-13.32 116.08 116.08 0 0 1 .51-12c.32-2.24.56-4.77 1.09-7a45.87 45.87 0 0 1 9.79-20c.6-.71 1.2-1.5 1.77-2.24-5.86-.41-10.2 3.14-13.47 9.4a78.57 78.57 0 0 0-7.31 14.28c-.3.71-.47 1.39-.81 2.14-1.52 3.51-3 7.05-4.15 10.69a33.41 33.41 0 0 0-.26 20.39 23.62 23.62 0 0 0 14.42 15.35 8.1 8.1 0 0 1 3.59 2.46c.6.88.71 3.21.15 3.59-1.92 1.3-1.65 3.06-1.6 4.77a4.27 4.27 0 0 1-1.62 4 12.12 12.12 0 0 0-3.7 7.89c-1.33 7.76-.92 11.33-12.46 12.59l7.82 2.8c-3.68 2.78-4.81 6.73-5.54 11.07-1.73 10.22-1.84 10.2-7.8 17.61 1.6-.21 2.91-.34 4.27-.6s2.46-.62 4-1L48 159.86l-4.06-1.41a23.51 23.51 0 0 0-1.2 4.83c0 .38 1.84.88 2.95 1.37-6.09 6.41-3.78 15-5.24 23.13l2.1-1.78-.71 3.87 3-4v3.8l.51.13 4.27-7.93 1.24 2.46 2-18.6 1.75-.85c1.5 6.2 2 7.07 5 9-1.47-7.63 3.06-11.82 8.25-15.84 3.83-3 7.35-6.41 11.09-9.55.19 8.06.41 16.29-5.39 23.3a22.72 22.72 0 0 0 9.75-7.52l.73.11-2.34 14.31a24.19 24.19 0 0 0 7.3-14.51l5 14.41 2.14-11.24 3.12 19h1.3l3.12-19 2.14 11.24 5.26-14.26a24.19 24.19 0 0 0 7.27 14.51l-2.24-14.26.73-.11a22.72 22.72 0 0 0 9.75 7.52c-5.79-7-5.58-15.24-5.39-23.3 3.74 3.25 7.27 6.58 11.09 9.55 5.17 4 9.72 8.21 8.25 15.84 3-2 3.46-2.84 5-9l1.75.85 2 18.6 1.24-2.46 4.27 7.93.51-.13V186l3 4-.71-3.87zm-33.92-73.1a10.26 10.26 0 0 0-4.62 7.29 16 16 0 0 1-2.29 4.72c-3.06-2.46-5.6-4.57-8.23-6.58-1-.79-2.14-1.35-3.44-.15a1.86 1.86 0 0 1-1.67.24 3.78 3.78 0 0 0-5 1.71 5.66 5.66 0 0 0 1.22 5c1.82 1.88 1.39 3.27.3 5.15l-2-1.65-2 1.65c-1.09-1.88-1.52-3.27.3-5.15a5.66 5.66 0 0 0 1.22-5 3.78 3.78 0 0 0-5-1.71 1.86 1.86 0 0 1-1.67-.24c-1.26-1.2-2.42-.64-3.44.15-2.63 2-5.17 4.13-8.23 6.58a16 16 0 0 1-2.29-4.72 10.26 10.26 0 0 0-4.62-7.29c-.6-.47-1.35-1.35-1.3-2 .45-5.69 1-11.35 1.75-17 .1-.78 1.34-1.78 2.28-2.11a46 46 0 0 1 7.1-1.2 156.48 156.48 0 0 1 16-1 156.48 156.48 0 0 1 16 1 46 46 0 0 1 7 1.24 3.57 3.57 0 0 1 2.29 2.14c.75 5.64 1.28 11.31 1.75 17a3.43 3.43 0 0 1-1.41 1.94z" id="viking" />
    </g>
</svg>
